<svg xmlns="http://www.w3.org/2000/svg" viewBox="0 0 500 500"><g id="freepik--background-complete--inject-13"><rect y="382.4" width="500" height="0.25" style="fill:#ebebeb"></rect><rect x="288.4" y="396.34" width="33.12" height="0.25" style="fill:#ebebeb"></rect><rect x="407.08" y="393.63" width="8.69" height="0.25" style="fill:#ebebeb"></rect><rect x="327.67" y="389.21" width="68.92" height="0.25" style="fill:#ebebeb"></rect><rect x="194.84" y="395.11" width="30.3" height="0.25" style="fill:#ebebeb"></rect><rect x="166.72" y="395.11" width="19.22" height="0.25" style="fill:#ebebeb"></rect><rect x="52.46" y="390.89" width="46.84" height="0.25" style="fill:#ebebeb"></rect><path d="M237,337.8H43.91a5.71,5.71,0,0,1-5.7-5.71V60.66A5.71,5.71,0,0,1,43.91,55H237a5.71,5.71,0,0,1,5.71,5.71V332.09A5.71,5.71,0,0,1,237,337.8ZM43.91,55.2a5.46,5.46,0,0,0-5.45,5.46V332.09a5.46,5.46,0,0,0,5.45,5.46H237a5.47,5.47,0,0,0,5.46-5.46V60.66A5.47,5.47,0,0,0,237,55.2Z" style="fill:#ebebeb"></path><path d="M453.31,337.8H260.21a5.72,5.72,0,0,1-5.71-5.71V60.66A5.72,5.72,0,0,1,260.21,55h193.1A5.71,5.71,0,0,1,459,60.66V332.09A5.71,5.71,0,0,1,453.31,337.8ZM260.21,55.2a5.47,5.47,0,0,0-5.46,5.46V332.09a5.47,5.47,0,0,0,5.46,5.46h193.1a5.47,5.47,0,0,0,5.46-5.46V60.66a5.47,5.47,0,0,0-5.46-5.46Z" style="fill:#ebebeb"></path><rect x="57.34" y="77.96" width="170.29" height="156.78" transform="translate(284.97 312.71) rotate(180)" style="fill:#e6e6e6"></rect><rect x="53.3" y="77.96" width="172.58" height="156.78" transform="translate(279.17 312.71) rotate(180)" style="fill:#f5f5f5"></rect><rect x="69.04" y="77.32" width="141.1" height="158.07" transform="translate(295.94 16.77) rotate(90)" style="fill:#fafafa"></rect><polygon points="199.09 226.9 145.93 85.81 123.55 85.81 176.71 226.9 199.09 226.9" style="fill:#fff"></polygon><polygon points="170.36 226.9 117.21 85.81 101.8 85.81 154.95 226.9 170.36 226.9" style="fill:#fff"></polygon><rect x="47.84" y="152.03" width="141.1" height="8.66" transform="translate(274.74 37.97) rotate(90)" style="fill:#e6e6e6"></rect><rect x="96.03" y="152.03" width="141.1" height="8.66" transform="translate(322.94 -10.23) rotate(90)" style="fill:#e6e6e6"></rect><rect x="39.73" y="150.45" width="151.9" height="10.94" transform="translate(271.61 40.24) rotate(90)" style="fill:#f5f5f5"></rect><rect x="87.93" y="150.45" width="151.9" height="10.94" transform="translate(319.8 -7.95) rotate(90)" style="fill:#f5f5f5"></rect><rect x="-9.61" y="155.97" width="141.1" height="0.77" transform="translate(217.29 95.42) rotate(90)" style="fill:#e6e6e6"></rect><rect x="270.69" y="79.4" width="175.19" height="122.54" style="fill:#ebebeb"></rect><rect x="445.88" y="79.4" width="1.48" height="122.54" transform="translate(893.23 281.34) rotate(180)" style="fill:#e0e0e0"></rect><rect x="303.15" y="59.21" width="110.27" height="162.91" transform="translate(498.95 -217.62) rotate(90)" style="fill:#fff"></rect><rect x="222.3" y="140.06" width="110.27" height="1.22" transform="translate(418.11 -136.77) rotate(90)" style="fill:#e0e0e0"></rect><rect x="380.55" y="97.43" width="39.8" height="55.92" style="fill:#f5f5f5"></rect><rect x="289.59" y="107.79" width="39.8" height="55.92" style="fill:#f5f5f5"></rect><rect x="353.01" y="121.7" width="39.8" height="55.92" style="fill:#ebebeb"></rect><rect x="322.69" y="124.16" width="15.54" height="15.54" style="fill:#f5f5f5"></rect><rect x="318.18" y="155.94" width="15.54" height="15.54" style="fill:#f0f0f0"></rect><path d="M409.1,375.21a7.19,7.19,0,1,1,7.18,7.19A7.19,7.19,0,0,1,409.1,375.21Z" style="fill:#e0e0e0"></path><path d="M421.22,375.21a7.19,7.19,0,1,1,7.19,7.19A7.19,7.19,0,0,1,421.22,375.21Z" style="fill:#e0e0e0"></path><path d="M222.67,375.21a7.19,7.19,0,1,1,7.19,7.19A7.19,7.19,0,0,1,222.67,375.21Z" style="fill:#e0e0e0"></path><path d="M234.8,375.21A7.19,7.19,0,1,1,242,382.4,7.19,7.19,0,0,1,234.8,375.21Z" style="fill:#e0e0e0"></path><rect x="421.54" y="223" width="17.01" height="153.2" transform="translate(860.08 599.2) rotate(180)" style="fill:#ebebeb"></rect><rect x="221.2" y="223" width="200.34" height="153.2" style="fill:#f5f5f5"></rect><rect x="227.71" y="229.29" width="187.31" height="140.63" style="fill:#ebebeb"></rect><rect x="230.38" y="288.43" width="181.98" height="78.89" style="fill:#f5f5f5"></rect><rect x="230.38" y="232.25" width="181.98" height="54.19" style="fill:#f5f5f5"></rect><path d="M263.49,289.77H379.25a1.34,1.34,0,0,0,1.33-1.34h0a1.34,1.34,0,0,0-1.33-1.33H263.49a1.34,1.34,0,0,0-1.33,1.33h0A1.34,1.34,0,0,0,263.49,289.77Z" style="fill:#ebebeb"></path><path d="M263.49,233.58H379.25a1.34,1.34,0,0,0,1.33-1.33h0a1.34,1.34,0,0,0-1.33-1.34H263.49a1.34,1.34,0,0,0-1.33,1.34h0A1.34,1.34,0,0,0,263.49,233.58Z" style="fill:#ebebeb"></path><rect x="63.91" y="304.17" width="88.22" height="78.22" style="fill:#f5f5f5"></rect><rect x="152.12" y="304.17" width="34.29" height="78.22" transform="translate(338.54 686.57) rotate(180)" style="fill:#ebebeb"></rect><rect x="59.56" y="290.45" width="94.48" height="13.72" style="fill:#ebebeb"></rect><rect x="154.04" y="290.45" width="36.73" height="13.72" transform="translate(344.8 594.63) rotate(180)" style="fill:#e0e0e0"></rect></g><g id="freepik--Shadow--inject-13"><ellipse id="freepik--path--inject-13" cx="250" cy="416.24" rx="193.89" ry="11.32" style="fill:#f5f5f5"></ellipse></g><g id="freepik--Window--inject-13"><rect x="407.69" y="186.89" width="1" height="11.92" style="fill:#B0BEC5"></rect><rect x="407.69" y="152.75" width="1" height="25.8" style="fill:#B0BEC5"></rect><rect x="147.25" y="131.91" width="254.07" height="143.28" rx="7.15" style="fill:#e0e0e0"></rect><rect x="150.9" y="128.26" width="254.07" height="143.28" rx="7.15" style="fill:#fff"></rect><path d="M397.83,272H158.05a7.66,7.66,0,0,1-7.65-7.65v-129a7.66,7.66,0,0,1,7.65-7.65H397.83a7.66,7.66,0,0,1,7.65,7.65v129A7.66,7.66,0,0,1,397.83,272ZM158.05,128.76a6.66,6.66,0,0,0-6.65,6.65v129a6.66,6.66,0,0,0,6.65,6.65H397.83a6.66,6.66,0,0,0,6.65-6.65v-129a6.66,6.66,0,0,0-6.65-6.65Z" style="fill:#B0BEC5"></path><path d="M262.8,190.49H170.39a3.73,3.73,0,0,1-3.72-3.73V174a3.73,3.73,0,0,1,3.72-3.73H262.8a3.73,3.73,0,0,1,3.72,3.73v12.73A3.73,3.73,0,0,1,262.8,190.49ZM170.39,171.3a2.73,2.73,0,0,0-2.72,2.73v12.73a2.72,2.72,0,0,0,2.72,2.73H262.8a2.72,2.72,0,0,0,2.72-2.73V174a2.73,2.73,0,0,0-2.72-2.73Z" style="fill:#e0e0e0"></path><path d="M311.48,217.48H170.39a3.73,3.73,0,0,1-3.72-3.72V201a3.73,3.73,0,0,1,3.72-3.73H311.48A3.73,3.73,0,0,1,315.2,201v12.74A3.73,3.73,0,0,1,311.48,217.48ZM170.39,198.29a2.73,2.73,0,0,0-2.72,2.73v12.74a2.72,2.72,0,0,0,2.72,2.72H311.48a2.72,2.72,0,0,0,2.72-2.72V201a2.73,2.73,0,0,0-2.72-2.73Z" style="fill:#e0e0e0"></path><path d="M171.46,211.4a.5.5,0,0,1-.5-.5v-7a.5.5,0,0,1,1,0v7A.5.5,0,0,1,171.46,211.4Z" style="fill:#e0e0e0"></path><path d="M373.57,190.49H281.16a3.73,3.73,0,0,1-3.72-3.73V174a3.73,3.73,0,0,1,3.72-3.73h92.41a3.73,3.73,0,0,1,3.72,3.73v12.73A3.73,3.73,0,0,1,373.57,190.49ZM281.16,171.3a2.73,2.73,0,0,0-2.72,2.73v12.73a2.72,2.72,0,0,0,2.72,2.73h92.41a2.72,2.72,0,0,0,2.72-2.73V174a2.73,2.73,0,0,0-2.72-2.73Z" style="fill:#e0e0e0"></path><path d="M230.51,152.75H171.28a4.12,4.12,0,0,1-4.11-4.11h0a4.12,4.12,0,0,1,4.11-4.11h59.23a4.12,4.12,0,0,1,4.11,4.11h0A4.12,4.12,0,0,1,230.51,152.75Z" style="fill:#B0BEC5;opacity:0.2"></path><path d="M246.81,232H182.63a1.65,1.65,0,0,1-1.64-1.64h0a1.65,1.65,0,0,1,1.64-1.64h64.18a1.64,1.64,0,0,1,1.63,1.64h0A1.64,1.64,0,0,1,246.81,232Z" style="fill:#B0BEC5;opacity:0.2"></path><circle cx="170.48" cy="230.39" r="3.31" style="fill:#B0BEC5"></circle><path d="M282.23,184.41a.5.5,0,0,1-.5-.5v-7a.5.5,0,0,1,1,0v7A.5.5,0,0,1,282.23,184.41Z" style="fill:#e0e0e0"></path><path d="M171.46,184.41a.5.5,0,0,1-.5-.5v-7a.5.5,0,0,1,1,0v7A.5.5,0,0,1,171.46,184.41Z" style="fill:#e0e0e0"></path><g style="opacity:0.6000000000000001"><path d="M175.44,183.38v-6.15h4.15V178h-3.33v1.9h2.88v.73h-2.88v2.79Z" style="fill:#263238"></path><path d="M180.55,178.1v-.87h.75v.87Zm0,5.28v-4.45h.75v4.45Z" style="fill:#263238"></path><path d="M182.44,183.38v-4.45h.68v.67a2.06,2.06,0,0,1,.48-.62.86.86,0,0,1,.49-.15,1.47,1.47,0,0,1,.77.24l-.26.7a1.05,1.05,0,0,0-.55-.16.77.77,0,0,0-.45.14.85.85,0,0,0-.28.42,3.07,3.07,0,0,0-.12.88v2.33Z" style="fill:#263238"></path><path d="M185,182.05l.74-.12a1.09,1.09,0,0,0,.35.69,1.22,1.22,0,0,0,.81.24,1.2,1.2,0,0,0,.77-.21.68.68,0,0,0,.25-.5.46.46,0,0,0-.22-.4,3.16,3.16,0,0,0-.78-.26,7.69,7.69,0,0,1-1.15-.36,1.1,1.1,0,0,1-.48-.42,1.13,1.13,0,0,1-.17-.6,1.2,1.2,0,0,1,.51-1,1.53,1.53,0,0,1,.48-.22,2.27,2.27,0,0,1,.65-.09,2.57,2.57,0,0,1,.92.15,1.25,1.25,0,0,1,.59.41,1.69,1.69,0,0,1,.26.69l-.74.1a.85.85,0,0,0-.29-.54,1.06,1.06,0,0,0-.68-.19,1.22,1.22,0,0,0-.75.17.51.51,0,0,0-.22.4.39.39,0,0,0,.09.26.73.73,0,0,0,.29.21l.67.19A9.86,9.86,0,0,1,188,181a1.05,1.05,0,0,1,.67,1,1.24,1.24,0,0,1-.22.71,1.4,1.4,0,0,1-.63.51,2.19,2.19,0,0,1-.94.19,2.08,2.08,0,0,1-1.32-.36A1.64,1.64,0,0,1,185,182.05Z" style="fill:#263238"></path><path d="M191.25,182.7l.1.67a3.15,3.15,0,0,1-.57.07,1.35,1.35,0,0,1-.63-.13.77.77,0,0,1-.32-.35,2.72,2.72,0,0,1-.09-.89v-2.56h-.56v-.58h.56v-1.1l.75-.46v1.56h.76v.58h-.76v2.61a1.19,1.19,0,0,0,0,.41.31.31,0,0,0,.13.15.55.55,0,0,0,.25,0Z" style="fill:#263238"></path><path d="M194.37,183.38v-4.45h.68v.63a1.57,1.57,0,0,1,1.41-.73,1.78,1.78,0,0,1,.74.14,1.2,1.2,0,0,1,.51.38,1.41,1.41,0,0,1,.23.56,4.11,4.11,0,0,1,0,.73v2.74h-.75v-2.71a2,2,0,0,0-.09-.69.72.72,0,0,0-.31-.36,1,1,0,0,0-.53-.14,1.19,1.19,0,0,0-.83.31,1.51,1.51,0,0,0-.35,1.16v2.43Z" style="fill:#263238"></path><path d="M202,182.83a3.14,3.14,0,0,1-.8.5,2.32,2.32,0,0,1-.84.15,1.6,1.6,0,0,1-1.12-.36,1.18,1.18,0,0,1-.4-.92,1.2,1.2,0,0,1,.15-.59,1.28,1.28,0,0,1,.39-.44,1.65,1.65,0,0,1,.54-.24,6.12,6.12,0,0,1,.67-.12,6.82,6.82,0,0,0,1.35-.26v-.19a.83.83,0,0,0-.21-.65,1.26,1.26,0,0,0-.86-.26,1.28,1.28,0,0,0-.78.19,1.1,1.1,0,0,0-.38.66l-.74-.1a2,2,0,0,1,.33-.77A1.58,1.58,0,0,1,200,179a3.11,3.11,0,0,1,1-.15,2.7,2.7,0,0,1,.93.13,1.21,1.21,0,0,1,.52.34,1.09,1.09,0,0,1,.23.51,3.72,3.72,0,0,1,0,.7v1a10.92,10.92,0,0,0,0,1.33,1.74,1.74,0,0,0,.19.54h-.79A1.77,1.77,0,0,1,202,182.83Zm-.06-1.69a5.05,5.05,0,0,1-1.23.29,2.49,2.49,0,0,0-.66.15.73.73,0,0,0-.3.24.65.65,0,0,0-.1.36.64.64,0,0,0,.23.51,1,1,0,0,0,.66.2,1.64,1.64,0,0,0,.78-.19,1.21,1.21,0,0,0,.5-.53,1.83,1.83,0,0,0,.12-.75Z" style="fill:#263238"></path><path d="M203.91,183.38v-4.45h.68v.62a1.45,1.45,0,0,1,.55-.52,1.5,1.5,0,0,1,.79-.2,1.52,1.52,0,0,1,.81.2,1.09,1.09,0,0,1,.45.58,1.6,1.6,0,0,1,1.38-.78,1.34,1.34,0,0,1,1,.36,1.56,1.56,0,0,1,.36,1.13v3.06h-.75v-2.81a2,2,0,0,0-.07-.65.64.64,0,0,0-.27-.32.84.84,0,0,0-.45-.12,1.06,1.06,0,0,0-.78.31,1.36,1.36,0,0,0-.31,1v2.59h-.76v-2.89a1.31,1.31,0,0,0-.18-.76.68.68,0,0,0-.6-.25,1.1,1.1,0,0,0-.59.17.92.92,0,0,0-.39.49,2.71,2.71,0,0,0-.13.93v2.31Z" style="fill:#263238"></path><path d="M214.1,181.94l.78.1a1.87,1.87,0,0,1-.68,1.06,2.31,2.31,0,0,1-2.82-.22,2.37,2.37,0,0,1-.57-1.69,2.47,2.47,0,0,1,.57-1.74,2,2,0,0,1,1.5-.62,1.9,1.9,0,0,1,1.46.6,2.42,2.42,0,0,1,.57,1.71,1.56,1.56,0,0,1,0,.2h-3.31a1.68,1.68,0,0,0,.41,1.13,1.24,1.24,0,0,0,.93.39,1.2,1.2,0,0,0,.71-.22A1.48,1.48,0,0,0,214.1,181.94Zm-2.47-1.22h2.48a1.54,1.54,0,0,0-.28-.84,1.15,1.15,0,0,0-.94-.43,1.21,1.21,0,0,0-.87.34A1.37,1.37,0,0,0,211.63,180.72Z" style="fill:#263238"></path></g><g style="opacity:0.6000000000000001"><path d="M175.42,210.37v-6.14h4.44V205h-3.63v1.88h3.4v.72h-3.4v2.09H180v.73Z" style="fill:#263238"></path><path d="M181,210.37v-4.45h.67v.62a1.65,1.65,0,0,1,.56-.52,1.57,1.57,0,0,1,.79-.2,1.52,1.52,0,0,1,.81.2,1.14,1.14,0,0,1,.45.58,1.59,1.59,0,0,1,1.37-.78,1.35,1.35,0,0,1,1,.37,1.54,1.54,0,0,1,.36,1.12v3.06h-.75v-2.8a2,2,0,0,0-.08-.66.68.68,0,0,0-.26-.32.85.85,0,0,0-.46-.12,1.1,1.1,0,0,0-.78.31,1.42,1.42,0,0,0-.31,1v2.59h-.75v-2.89a1.31,1.31,0,0,0-.18-.76.74.74,0,0,0-.61-.25,1.12,1.12,0,0,0-.59.17.92.92,0,0,0-.39.49,2.83,2.83,0,0,0-.12.93v2.31Z" style="fill:#263238"></path><path d="M191.08,209.82a2.79,2.79,0,0,1-.81.5,2.27,2.27,0,0,1-.83.15,1.63,1.63,0,0,1-1.13-.36,1.18,1.18,0,0,1-.39-.91,1.21,1.21,0,0,1,.15-.6,1.28,1.28,0,0,1,.39-.44,1.89,1.89,0,0,1,.54-.24,5.69,5.69,0,0,1,.67-.12,5.92,5.92,0,0,0,1.34-.26,1.77,1.77,0,0,0,0-.19.8.8,0,0,0-.22-.65,1.23,1.23,0,0,0-.85-.26,1.37,1.37,0,0,0-.79.19,1.1,1.1,0,0,0-.37.66l-.74-.1a2,2,0,0,1,.33-.77,1.43,1.43,0,0,1,.67-.44,2.8,2.8,0,0,1,1-.16,2.7,2.7,0,0,1,.93.13,1.25,1.25,0,0,1,.53.34,1.33,1.33,0,0,1,.23.51,4.88,4.88,0,0,1,0,.7v1a9,9,0,0,0,.05,1.33,1.52,1.52,0,0,0,.19.54h-.79A1.54,1.54,0,0,1,191.08,209.82Zm-.07-1.68a5.68,5.68,0,0,1-1.23.28,3.33,3.33,0,0,0-.65.15.68.68,0,0,0-.3.25.61.61,0,0,0-.11.35.66.66,0,0,0,.23.51,1,1,0,0,0,.67.2,1.6,1.6,0,0,0,.77-.19,1.14,1.14,0,0,0,.5-.52,1.88,1.88,0,0,0,.12-.76Z" style="fill:#263238"></path><path d="M193,205.09v-.86h.76v.86Zm0,5.28v-4.45h.76v4.45Z" style="fill:#263238"></path><path d="M194.84,210.37v-6.14h.75v6.14Z" style="fill:#263238"></path></g><g style="opacity:0.6000000000000001"><path d="M286.14,183.38v-6.15H287v5.42h3v.73Z" style="fill:#263238"></path><path d="M293.75,182.83a3,3,0,0,1-.81.5,2.27,2.27,0,0,1-.83.15,1.63,1.63,0,0,1-1.13-.36,1.26,1.26,0,0,1-.24-1.51,1.28,1.28,0,0,1,.39-.44,1.65,1.65,0,0,1,.54-.24,5.69,5.69,0,0,1,.67-.12,6.82,6.82,0,0,0,1.35-.26v-.19a.83.83,0,0,0-.21-.65,1.28,1.28,0,0,0-.86-.26,1.3,1.3,0,0,0-.79.19,1.1,1.1,0,0,0-.37.66l-.74-.1a2,2,0,0,1,.33-.77,1.58,1.58,0,0,1,.67-.45,3.07,3.07,0,0,1,1-.15,2.6,2.6,0,0,1,.92.13,1.25,1.25,0,0,1,.53.34,1.09,1.09,0,0,1,.23.51,3.72,3.72,0,0,1,0,.7v1a9.09,9.09,0,0,0,.05,1.33,1.52,1.52,0,0,0,.19.54h-.79A1.54,1.54,0,0,1,293.75,182.83Zm-.06-1.69a5.31,5.31,0,0,1-1.23.29,2.39,2.39,0,0,0-.66.15.73.73,0,0,0-.3.24.66.66,0,0,0-.11.36.68.68,0,0,0,.23.51,1,1,0,0,0,.67.2,1.67,1.67,0,0,0,.78-.19,1.27,1.27,0,0,0,.5-.53,1.83,1.83,0,0,0,.12-.75Z" style="fill:#263238"></path><path d="M295.32,182.05l.74-.12a1,1,0,0,0,.35.69,1.21,1.21,0,0,0,.8.24,1.16,1.16,0,0,0,.77-.21.66.66,0,0,0,.26-.5.45.45,0,0,0-.23-.4,2.88,2.88,0,0,0-.77-.26,7.69,7.69,0,0,1-1.15-.36,1.1,1.1,0,0,1-.48-.42,1.13,1.13,0,0,1-.17-.6,1.2,1.2,0,0,1,.51-1,1.53,1.53,0,0,1,.48-.22,2.27,2.27,0,0,1,.65-.09,2.57,2.57,0,0,1,.92.15,1.17,1.17,0,0,1,.58.41,1.45,1.45,0,0,1,.26.69l-.73.1a.81.81,0,0,0-.3-.54,1,1,0,0,0-.68-.19,1.21,1.21,0,0,0-.74.17.49.49,0,0,0-.22.4.39.39,0,0,0,.09.26.66.66,0,0,0,.29.21l.67.19a8.92,8.92,0,0,1,1.11.35,1.1,1.1,0,0,1,.5.39,1.13,1.13,0,0,1,.18.65,1.24,1.24,0,0,1-.22.71,1.46,1.46,0,0,1-.63.51,2.19,2.19,0,0,1-.94.19,2.08,2.08,0,0,1-1.32-.36A1.64,1.64,0,0,1,295.32,182.05Z" style="fill:#263238"></path><path d="M301.55,182.7l.11.67a3.15,3.15,0,0,1-.57.07,1.35,1.35,0,0,1-.63-.13.77.77,0,0,1-.32-.35,2.72,2.72,0,0,1-.09-.89v-2.56h-.56v-.58h.56v-1.1l.75-.46v1.56h.75v.58h-.75v2.61a1.19,1.19,0,0,0,0,.41.35.35,0,0,0,.12.15.63.63,0,0,0,.26,0Z" style="fill:#263238"></path><path d="M304.67,183.38v-4.45h.68v.63a1.6,1.6,0,0,1,1.42-.73,1.81,1.81,0,0,1,.74.14,1.17,1.17,0,0,1,.5.38,1.42,1.42,0,0,1,.24.56,4.11,4.11,0,0,1,0,.73v2.74h-.75v-2.71a2,2,0,0,0-.09-.69.72.72,0,0,0-.31-.36,1,1,0,0,0-.53-.14,1.19,1.19,0,0,0-.83.31,1.51,1.51,0,0,0-.35,1.16v2.43Z" style="fill:#263238"></path><path d="M312.35,182.83a3,3,0,0,1-.81.5,2.23,2.23,0,0,1-.83.15,1.59,1.59,0,0,1-1.12-.36,1.18,1.18,0,0,1-.4-.92,1.2,1.2,0,0,1,.15-.59,1.28,1.28,0,0,1,.39-.44,1.65,1.65,0,0,1,.54-.24,5.69,5.69,0,0,1,.67-.12,6.82,6.82,0,0,0,1.35-.26v-.19a.83.83,0,0,0-.21-.65,1.26,1.26,0,0,0-.86-.26,1.32,1.32,0,0,0-.79.19,1.1,1.1,0,0,0-.37.66l-.74-.1a2,2,0,0,1,.33-.77,1.58,1.58,0,0,1,.67-.45,3.11,3.11,0,0,1,1-.15,2.7,2.7,0,0,1,.93.13,1.21,1.21,0,0,1,.52.34,1.09,1.09,0,0,1,.23.51,3.72,3.72,0,0,1,0,.7v1a10.92,10.92,0,0,0,.05,1.33,1.52,1.52,0,0,0,.19.54h-.79A1.54,1.54,0,0,1,312.35,182.83Zm-.06-1.69a5.31,5.31,0,0,1-1.23.29,2.49,2.49,0,0,0-.66.15.73.73,0,0,0-.3.24.65.65,0,0,0-.1.36.67.67,0,0,0,.22.51,1,1,0,0,0,.67.2,1.67,1.67,0,0,0,.78-.19,1.27,1.27,0,0,0,.5-.53,1.83,1.83,0,0,0,.12-.75Z" style="fill:#263238"></path><path d="M314.22,183.38v-4.45h.67v.62a1.55,1.55,0,0,1,.56-.52,1.5,1.5,0,0,1,.79-.2,1.52,1.52,0,0,1,.81.2,1.14,1.14,0,0,1,.45.58,1.59,1.59,0,0,1,1.37-.78,1.38,1.38,0,0,1,1,.36,1.56,1.56,0,0,1,.36,1.13v3.06h-.75v-2.81a2,2,0,0,0-.08-.65.58.58,0,0,0-.26-.32.84.84,0,0,0-.45-.12,1,1,0,0,0-.78.31,1.36,1.36,0,0,0-.31,1v2.59h-.76v-2.89a1.31,1.31,0,0,0-.18-.76.69.69,0,0,0-.6-.25,1.1,1.1,0,0,0-.59.17,1,1,0,0,0-.4.49,2.75,2.75,0,0,0-.12.93v2.31Z" style="fill:#263238"></path><path d="M324.41,181.94l.78.1a1.87,1.87,0,0,1-.68,1.06,2.06,2.06,0,0,1-1.27.38,2,2,0,0,1-1.55-.6,2.37,2.37,0,0,1-.57-1.69,2.47,2.47,0,0,1,.57-1.74,2,2,0,0,1,1.5-.62,1.92,1.92,0,0,1,1.46.6,2.42,2.42,0,0,1,.57,1.71c0,.05,0,.12,0,.2h-3.32a1.73,1.73,0,0,0,.42,1.13,1.24,1.24,0,0,0,.93.39,1.2,1.2,0,0,0,.71-.22A1.48,1.48,0,0,0,324.41,181.94Zm-2.47-1.22h2.48a1.54,1.54,0,0,0-.28-.84,1.17,1.17,0,0,0-.94-.43,1.19,1.19,0,0,0-.87.34A1.37,1.37,0,0,0,321.94,180.72Z" style="fill:#263238"></path></g><rect x="293.58" y="243.91" width="45.12" height="17.1" rx="5.46" style="fill:#B0BEC5"></rect><rect x="348.18" y="243.91" width="45.12" height="17.1" rx="5.46" style="fill:#B0BEC5;opacity:0.2"></rect></g><g id="freepik--Plant--inject-13"><path d="M333.16,290.91c6.71,6.68,5.74,13.46,1,18.26s-11.56,5.81-18.27-.88-10.81-18.51-6-23.31S326.45,284.23,333.16,290.91Z" style="fill:#B0BEC5"></path><path d="M356.91,334.74c-8.29,1.47-13.29-2.46-15-8.08s.44-10.81,8.74-12.28,19.56,1.36,21.3,7S365.21,333.28,356.91,334.74Z" style="fill:#B0BEC5"></path><path d="M313.13,347.87c6,2,10.09-.39,12-4.36s.83-8.05-5.14-10-14.62-1.11-16.51,2.86S307.15,345.89,313.13,347.87Z" style="fill:#B0BEC5"></path><path d="M361.55,290.52c-5.74,7.87-12.83,8.51-18.51,5.12s-7.8-9.55-2.06-17.41,17.18-14.45,22.86-11.06S367.3,282.66,361.55,290.52Z" style="fill:#B0BEC5"></path><path d="M328.09,393.61a1,1,0,0,1-1-.95c-3.07-59.26,19.37-105.29,19.6-105.75a1,1,0,0,1,1.34-.45,1,1,0,0,1,.45,1.34c-.22.45-22.44,46-19.39,104.75a1,1,0,0,1-.95,1.05Z" style="fill:#263238"></path><path d="M336.39,319.64h-.09a1,1,0,0,1-.91-1.09c0-.13,1.12-13-7.73-17.27a1,1,0,0,1,.86-1.81c10.12,4.84,8.92,18.68,8.86,19.27A1,1,0,0,1,336.39,319.64Z" style="fill:#263238"></path><path d="M329.14,357.68a1,1,0,0,1-1-.92c0-.13-1.16-12.41-11.93-15.83a1,1,0,1,1,.6-1.9c12.07,3.82,13.31,17.43,13.32,17.57a1,1,0,0,1-.91,1.07Z" style="fill:#263238"></path><path d="M331.3,342.38l-.24,0a1,1,0,0,1-.73-1.21c4.68-19,19.45-18.53,19.6-18.53a1,1,0,0,1-.09,2c-.54,0-13.29-.34-17.57,17A1,1,0,0,1,331.3,342.38Z" style="fill:#263238"></path><path d="M369.65,384.9a39.54,39.54,0,0,1-14.44,30.55,3.25,3.25,0,0,1-2.11.78H305.64a3.25,3.25,0,0,1-2.11-.78,39.58,39.58,0,0,1-14.44-30.55,39.16,39.16,0,0,1,1.62-11.21v0c.6-2,2.09-3.3,3.73-3.3H364.3a4.15,4.15,0,0,1,3.72,3.3v0A39.16,39.16,0,0,1,369.65,384.9Z" style="fill:#B0BEC5"></path><path d="M369.53,387.81A642.77,642.77,0,0,0,302,414.07c.27.25.56.49.84.74a640.09,640.09,0,0,1,66.65-25.91C369.48,388.54,369.51,388.18,369.53,387.81Z" style="fill:#fff"></path><path d="M355.15,370.36h-1.73c-18.49,13.07-36.46,27.17-54,41.18.22.25.45.5.68.74C318,398,336.31,383.63,355.15,370.36Z" style="fill:#fff"></path><path d="M343.9,416.23q12.45-10.2,24.38-21c.16-.58.3-1.16.43-1.75q-12.85,11.74-26.38,22.79Z" style="fill:#fff"></path><path d="M344,370.36c-18.86,6.19-36.56,16-53.07,26.29.11.32.21.65.32,1,17.38-10.88,36.09-21.17,56.07-27.27Z" style="fill:#fff"></path><path d="M289.7,378.1q8-4.22,16.31-7.74h-2.5q-6.9,3-13.59,6.5C289.84,377.27,289.77,377.69,289.7,378.1Z" style="fill:#fff"></path><path d="M314.54,370.36h-1.47l-23.35,21.58c.07.38.16.77.24,1.15Z" style="fill:#fff"></path></g></svg>